<svg xmlns="http://www.w3.org/2000/svg" xmlns:xlink="http://www.w3.org/1999/xlink" version="1.0" id="Layer_1" x="0px" y="0px" style="enable-background:new 0 0 267.8 209.9;" xml:space="preserve" viewBox="34.8 67 197.91 76">
<style type="text/css">
	.st0{fill:#333E48;}
</style>
<path class="st0" d="M188.9,85l-0.2,1.7c1,0.4,2,0.7,3.1,0.7c0.7,0,1.3-0.1,2-0.3c1.4-0.4,2.3-1.7,2.3-3.1c0-1.3-1-2.2-2.6-2.5  l-1.2-0.2c-0.9-0.2-1.7-0.4-1.7-1.5c0-0.9,0.9-1.6,2.1-1.6c0.7,0,1.5,0.2,2,0.8v0.7h0.7l0.1-1.7c-0.9-0.3-1.8-0.5-2.7-0.5  c-2.1,0-3.9,0.9-3.9,3.1c0,1.2,0.9,2.2,2.6,2.5l1.4,0.2c0.8,0.1,1.4,0.7,1.4,1.5c0,1.3-1.1,1.9-2.3,1.9c-0.9,0-1.8-0.4-2.4-1.1V85  L188.9,85z M156.6,95.4c0.1,0.1,2.7-1.3,3.7-0.2c1.1,1.2-0.3,6-3.4,12.1c-3,5.9-5.7,10.8-6.3,12.6s0.7,1.2,2.2,0.5  c2.9-1.5,14.9-11.6,16.5-12.4c0.9-0.4-6.1,7.8-12.9,15c-7.8,8.2-15.4,17.4-26.2,17.4c-6.7,0-12.9-3.5-16.4-9.3c0,0,2.8,11,17,11  c16.3,0,28.7-17.2,37.6-27.6c7.2-8.4,13.5-15.8,17.9-18.4c2.8-1.6,6.2-1.9,9.3-1c-6.9-4.3-15.5,1.9-22.4,8.1  c-5.7,5.1-15.6,11.8-16.3,12.4c-0.8,0.7,10.5-19.2,7.2-22.1C162.9,92.5,156,94.9,156.6,95.4 M227.4,78.1v-0.6h-2.7v0.6  c0.6,0,0.9,0.1,0.7,0.4s-2.2,3.6-2.2,3.6l-2-3.5c-0.2-0.3-0.2-0.6,0.8-0.5v-0.6h-4.4v0.6c1.1,0,1.1,0.2,1.4,0.7s2.7,4.6,2.7,4.6v2.2  c0,1-0.1,1.1-1.2,1.1v0.6h4.6v-0.6c-1.2,0-1.2,0-1.2-1.1c0,0,0-2.5,0-2.6s2.2-3.8,2.4-4.1C226.4,78.3,226.9,78,227.4,78.1  L227.4,78.1z M131.9,85.5c0,1,0,1.1-1.2,1.1v0.6h3.4v-0.6c-1.2,0-1.2-0.1-1.2-1.1v-5.8l6.8,7.6l1.1-0.3v-7.8c0-1,0.1-1.1,1.2-1.1  v-0.6h-3.4v0.6c1.2,0,1.2,0.1,1.2,1.1v5.3l-0.3-0.3l-5.8-6.6h-3v0.6c1.2,0,1.2,0.1,1.2,1.1L131.9,85.5z M145.9,85.5  c0,1-0.1,1.1-1.2,1.1v0.6h4.6v-0.6c-1.2,0-1.2-0.1-1.2-1.1v-6.3c0-1,0-1.1,1.2-1.1v-0.6h-4.6v0.6c1.2,0,1.2,0.1,1.2,1.1V85.5z   M155.9,79.4c-0.2-0.3-0.3-0.6-0.3-1c0-0.2,0.6-0.3,1.1-0.3v-0.6H152v0.6c0.7,0,1.2,0.4,1.5,1l3.5,8.1h1.1l3.6-8.4  c0.3-0.6,0.4-0.7,1.1-0.7v-0.6h-3.4v0.6c0.9,0,1.2,0.1,1.2,0.4c0,0.2-0.1,0.5-0.2,0.7l-2.3,5.6L155.9,79.4z M166.6,85.7  c0,0.6-0.2,0.8-1,0.9v0.6h7.8l0.1-2.2h-0.6l-0.3,1.1c-1.3,0.1-2.6,0.2-3.9,0.2v-3.8h1.7c0.3,0,0.7,0,0.8,0.3c0,0.2,0,0.5,0,0.7h0.6  l0.2-2.7h-0.6c0,0.2-0.1,0.5-0.2,0.7c-0.1,0.3-0.3,0.3-0.5,0.3h-2.1v-3c0-0.2,0-0.3,0.1-0.5c0.4,0,2.3,0,2.8,0  c0.3,0,0.6,0.1,0.7,0.3s0.1,0.7,0.1,0.7h0.6L173,78l0.1-0.5h-7.8v0.6c1.1,0,1.2,0.2,1.3,1L166.6,85.7L166.6,85.7z M177.5,85.5  c0,1-0.1,1.1-1.2,1.1v0.6h4.6v-0.6c-1.2,0-1.3-0.1-1.3-1.1v-6.8c0-0.1,0-0.2,0.1-0.3c0.3-0.1,0.6-0.1,0.9-0.1c1.1,0,2,0.9,2,2  c0,0,0,0,0,0.1c0,1.3-0.4,2-2.1,2.2v0.3l3.1,4.4h2.7v-0.6c-0.4-0.1-0.8-0.3-1-0.6l-2.6-3.3c1.3-0.2,2.2-1.3,2.1-2.6c0,0,0,0,0-0.1  c-0.1-1.8-1.9-2.4-3.5-2.4h-4.8v0.6c1.2,0,1.2,0.1,1.2,1.1L177.5,85.5L177.5,85.5z M200.5,85.5c0,1-0.1,1.1-1.2,1.1v0.6h4.6v-0.6  c-1.2,0-1.2-0.1-1.2-1.1v-6.3c0-1,0-1.1,1.2-1.1v-0.6h-4.6v0.6c1.2,0,1.2,0.1,1.2,1.1V85.5z M212.2,78.5h2.1c0.8,0,0.7,0.1,0.8,0.8  c0,0.1,0,0.2,0,0.4h0.6l0.2-2.1h-9.2c0,0,0.1,1.4,0,2.1h0.6c0-0.4,0.1-0.5,0.1-0.7c0.1-0.3,0.4-0.4,0.7-0.4h2.1v7  c0,1-0.1,1.1-1.2,1.1v0.6h4.6v-0.6c-1.2,0-1.2-0.1-1.2-1.1L212.2,78.5L212.2,78.5z M117.2,78.1v-0.6h4.5v0.6c-0.3,0-0.7,0-1,0.1  c-0.1,0.1-0.1,0.1-0.1,0.2c-0.1,0.3-0.1,4.3-0.1,4.3c0,0.8,0,1.3,0,1.6c0,0.4,0.1,0.7,0.3,1c0.2,0.3,0.5,0.5,0.8,0.6  c0.4,0.2,0.9,0.3,1.4,0.2c0.5,0,1.1-0.1,1.6-0.3c0.4-0.2,0.7-0.5,0.8-0.8c0.2-0.6,0.3-1.3,0.2-2c0,0,0-3.3,0-3.6c0-0.3,0-0.7-0.1-1  c0-0.1-0.1-0.1-0.2-0.2c-0.3-0.1-0.7-0.1-1-0.1v-0.6h3.3v0.6c-0.3,0-0.6,0-0.8,0.1c-0.1,0.1-0.1,0.1-0.1,0.2  c-0.1,0.5-0.1,0.9-0.1,1.4c0,0.8,0,3.6,0,3.6c0,0.4,0,0.8-0.1,1.3c0,0.4-0.2,0.8-0.4,1.1c-0.2,0.3-0.5,0.6-0.8,0.8  c-0.4,0.3-0.8,0.5-1.2,0.6c-0.5,0.1-1.1,0.2-1.6,0.2c-0.7,0-1.3-0.1-2-0.3c-0.4-0.1-0.8-0.3-1.1-0.6c-0.3-0.2-0.5-0.5-0.7-0.8  c-0.1-0.3-0.2-0.5-0.3-0.8c0-0.2,0-0.6,0-1.3c0,0,0-4.3,0-4.8c0-0.2,0-0.3-0.1-0.4c-0.1-0.1-0.1-0.1-0.2-0.2L117.2,78.1L117.2,78.1z  "/>
<path class="st0" d="M140.5,103.1c-0.1,0,2.6-7.8,4.9-8.3s1.4,2.5,0.9,3.4c-0.4,0.6-0.1,0.7,0.4,0.2c0.9-0.8,2.9-3.2,1.8-4.4  c-0.6-0.5-1.3-0.7-2-0.6c-2.6,0-6,1.8-9.4,9.5c-2.1,0-4.2,0.1-6.2,0.4c0.1-1.7-1.1-3.2-2.8-3.4c-0.2,0-0.4,0-0.5,0  c-3.7,0-8.8,3.7-11.4,8.3s-1.8,8.3,1.8,8.3s8.8-3.7,11.4-8.3c0.5-0.8,0.9-1.7,1.2-2.7c1.8-0.2,3.7-0.3,5.5-0.2  c-1.1,3.5-2.5,6.9-4.1,10.2c-1.4,2.7-5.6,7.8-11.2,5.3c-1.2-0.5-1.1,0.2,0.7,0.8c2.4,0.8,7,1.5,11.6-4.2c2.8-3.4,6.6-12,6.6-12  s8.3,0.7,9.7-6C149.3,99.6,147.9,104.1,140.5,103.1L140.5,103.1z M119.5,114.5c-2.1,0-2.3-2.8-0.6-6.3s4.8-6.3,6.9-6.3  c1.3,0,1.9,1.1,1.7,2.8c-1.4,0.8-2.6,1.8-2.6,1.8s-0.1,0.2,0.1,0.1l2.3-0.6c-0.2,0.7-0.5,1.4-0.8,2  C124.6,111.7,121.6,114.5,119.5,114.5L119.5,114.5z M232.7,123.8c-1.7,1.1-3.8,1.6-5.8,1.4c-4-0.5-9.5-6-10.8-7.2  c-0.5-0.5,8.8-2.6,10.7-6.9c0.6-1.1,0.2-2.5-0.9-3.1c-0.2-0.1-0.4-0.2-0.6-0.2c-1.1,5.3-6.4,7.2-10.8,9.4c-1.3-0.3-2.8-0.1-3.9,0.7  c-0.9,0.5,7.8-18.4,9-20.9c-1.5,0.4-3,1-4.5,1.6c-0.3,0.5,0.2,0.2,0,0.7c-0.4,1.7-4.4,9.8-4.4,9.8c-2.7,0-10.7,3.4-11.8,4  s1.6-3.6,0.6-4.2s-2.1-0.5-4.5,0.1c-2.1,0.7-4.2,1.6-6.1,2.7c0-1.9-1.5-3.5-3.4-3.5c-0.1,0-0.3,0-0.4,0c-4.1,0-9.8,4.2-12.8,9.3  s-2.1,9.3,2,9.3s9.8-4.2,12.8-9.3c0.8-1.3,1.3-2.7,1.6-4.2c2.1-1.4,7.1-3.4,7.4-2.8c0.6,1-6.3,13.7-7.5,16.1c0,0,0,0.1,0.2,0  c1.6-0.5,3.5-1.2,3.9-2c1.8-3.7,7.9-13.8,13.9-12.7c0.8,0.2,3.4-1.5,3.2-1c-0.4,1.3-5.9,12.5-7.7,15.6c-0.4,0.7,3.5-0.9,4-1.8  c1.8-3.3,4.1-5,5.4-5c1.5,0,7.5,7.4,14.1,7.4C230.5,127,232.9,123.9,232.7,123.8L232.7,123.8z M176.3,124.5c-2.3,0-2.6-3.1-0.7-7  s5.4-7,7.7-7c1.6,0,2.2,1.5,1.9,3.7c-1.2,1.1-2.2,2.1-2.2,2.1s-0.1,0.2,0.1,0.1l1.9-1c-0.2,0.7-0.5,1.4-0.9,2.1  C182,121.4,178.6,124.5,176.3,124.5L176.3,124.5z M72.9,131.5c0-0.2-0.2-0.3-0.3-0.4c-0.2-0.1-0.5-0.1-0.7,0l-1.2,0.4l-0.1-0.2  c0,0,0-0.1,0-0.1l1.2-0.4c0.2-0.1,0.4-0.2,0.6-0.4c0-0.1,0.1-0.2,0.1-0.3c0-0.1,0-0.2,0-0.3c-0.3-0.8-0.8-1.5-1.5-2  c-0.7-0.5-1.5-0.8-2.3-0.8c-0.2,0-0.4,0-0.5,0.2c-0.1,0.2-0.2,0.4-0.2,0.7v1.3h-0.4V128c0-0.2-0.1-0.5-0.2-0.7  c-0.1-0.1-0.3-0.2-0.5-0.2c-0.8,0-1.6,0.3-2.3,0.8c-0.7,0.5-1.2,1.1-1.5,1.9c0,0.1-0.1,0.2,0,0.3c0,0.1,0,0.2,0.1,0.2  c0.1,0.2,0.3,0.4,0.6,0.4l1.2,0.4c0,0,0,0.1,0,0.1c0,0.1,0,0.1-0.1,0.2l-1.2-0.4c-0.2-0.1-0.5-0.1-0.7,0c-0.2,0.1-0.3,0.2-0.3,0.4  c-0.2,0.8-0.2,1.6,0.1,2.4c0.2,0.8,0.7,1.5,1.4,2c0.1,0.1,0.3,0.2,0.5,0.1c0.2-0.1,0.4-0.2,0.6-0.4c0,0,0.6-0.9,0.8-1.1l0.1,0.1  l0.1,0.1c-0.2,0.2-0.8,1-0.8,1.1c-0.1,0.2-0.2,0.4-0.2,0.6c0,0,0,0,0,0.1c0,0.2,0.1,0.3,0.3,0.4c0.7,0.5,1.5,0.7,2.3,0.7  c0.8,0,1.6-0.2,2.3-0.7c0.2-0.1,0.3-0.3,0.3-0.4v-0.1c0-0.2-0.1-0.4-0.2-0.6l-0.8-1.1l0.1-0.1l0.1-0.1l0.8,1.1  c0.2,0.2,0.4,0.3,0.6,0.4c0.2,0,0.4,0,0.5-0.1c0.7-0.5,1.1-1.2,1.4-2C73.1,133.2,73.1,132.3,72.9,131.5L72.9,131.5z M68.2,128.6  c0-0.2,0.1-0.4,0.2-0.6c0.3-0.5,0.8-0.1,1.2,0.1c0.4,0.3,0.6,0.4,0.8,0.3h0.1v0.1l0,0c0,0.2,0.3,0.4,0.5,0.6  c0.3,0.2,0.6,0.5,0.6,0.8c0,0.1,0,0.2-0.1,0.3c-0.1,0.1-0.3,0.3-0.5,0.4l-0.7,0.2c-0.1-0.3-0.4-0.6-0.6-0.8  c-0.1-0.1-0.2-0.1-0.3-0.1c-0.1,0.1-0.2,0.1-0.3,0.2l-0.6,0.8l-0.1-0.1c0.3-0.4,0.6-0.8,0.6-0.8c0.1-0.1,0.1-0.2,0.1-0.4l0,0  c0-0.1-0.1-0.2-0.2-0.2c-0.3-0.2-0.6-0.3-0.9-0.4C68.2,129.1,68.2,128.7,68.2,128.6L68.2,128.6z M69.1,132.1c0-0.3-0.2-0.6-0.4-0.9  l0.3-0.5c0.1-0.1,0.1-0.1,0.2-0.1c0.2-0.1,0.3,0.1,0.4,0.4s0.1,0.4,0.3,0.4c0,0,0,0.1,0,0.1c0,0.1,0,0.3,0.1,0.4  c0,0.1,0.1,0.2,0.1,0.3c0,0.1-0.1,0.2-0.2,0.2c-0.1,0-0.2,0-0.3,0l-0.5-0.2c0,0,0-0.1,0-0.1C69.2,132.2,69.2,132.2,69.1,132.1  L69.1,132.1z M68.2,129.9c0.3,0,0.5,0,0.5,0.2c0,0.1,0,0.2-0.1,0.3l-0.3,0.5c-0.2-0.1-0.4-0.1-0.6-0.1l0,0c-0.2,0-0.4,0-0.6,0.1  c-0.2-0.2-0.3-0.5-0.3-0.5c0-0.1-0.1-0.2-0.1-0.3c0-0.2,0.2-0.2,0.5-0.2c0.2,0,0.3,0,0.5-0.1C67.8,129.9,68,129.9,68.2,129.9  L68.2,129.9z M64.3,130.7c-0.2-0.1-0.3-0.2-0.5-0.4c-0.3-0.5,0.1-0.8,0.5-1.1c0.4-0.3,0.6-0.5,0.5-0.7v-0.1H65  c0.2,0.1,0.5-0.1,0.8-0.3s0.9-0.6,1.2-0.1c0.1,0.2,0.2,0.4,0.2,0.5v0.7c-0.3,0-0.6,0.2-0.9,0.3c-0.1,0-0.2,0.1-0.2,0.2l0,0  c0,0.1,0.1,0.2,0.1,0.3l0.6,0.8l-0.1,0.1l-0.6-0.8c-0.1-0.1-0.2-0.2-0.3-0.2c-0.1,0-0.2,0-0.3,0.1c-0.3,0.2-0.5,0.5-0.6,0.8  L64.3,130.7L64.3,130.7z M66.2,132.4l-0.5,0.2c-0.1,0-0.2,0-0.3,0c-0.1,0-0.2-0.1-0.2-0.2c0-0.1,0-0.2,0.1-0.3  c0-0.1,0.1-0.2,0.1-0.4c0,0,0-0.1,0-0.1c0.1-0.1,0.2-0.3,0.3-0.4c0.1-0.2,0.2-0.5,0.4-0.4c0.1,0,0.2,0.1,0.2,0.2l0.3,0.5  c-0.2,0.2-0.3,0.5-0.4,0.7c0,0.1,0,0.2,0,0.2L66.2,132.4L66.2,132.4z M65.2,135c-0.1,0.1-0.3,0.3-0.5,0.3c-0.5,0.2-0.7-0.4-0.9-0.8  c-0.2-0.5-0.2-0.7-0.5-0.7h-0.1l0.1-0.1c0.2-0.2,0.1-0.5,0-0.9c-0.1-0.4-0.3-1,0.2-1.2c0.2,0,0.4,0,0.6,0l0.6,0.2  c0,0.3,0,0.6,0.1,0.9c0,0.1,0.1,0.2,0.2,0.2c0.1,0,0.3,0,0.4,0l0.9-0.3v0.1l-0.9,0.3c-0.1,0.1-0.2,0.1-0.3,0.2c0,0.1,0,0.2,0,0.3  c0.1,0.3,0.3,0.6,0.5,0.8L65.2,135L65.2,135z M65.9,133.8c-0.2-0.1-0.3-0.2-0.3-0.4c0,0,0-0.1,0-0.1c0.1-0.1,0.1-0.1,0.2-0.2  l0.5-0.2c0.2,0.4,0.6,0.7,1,0.8c0,0.2,0,0.5,0,0.5c0,0.1,0,0.2-0.1,0.2c-0.1,0.2-0.3,0.1-0.5-0.1c-0.3-0.2-0.3-0.2-0.5-0.2  C66.2,134,66.1,133.8,65.9,133.8L65.9,133.8z M69.4,135.5c0.1,0.2,0.1,0.4,0.2,0.6c0,0.6-0.6,0.6-1.1,0.6s-0.7,0-0.8,0.2l0,0.1v-0.1  c-0.1-0.2-0.5-0.2-0.8-0.2c-0.4,0-1.1,0-1.1-0.6c0-0.2,0.1-0.4,0.2-0.6l0.4-0.6c0.3,0.2,0.6,0.2,0.9,0.2c0.1,0,0.2,0,0.3-0.1  c0.1-0.1,0.1-0.2,0.1-0.4v-0.9h0.1v0.9c0,0.1,0,0.2,0.1,0.3c0.1,0.1,0.2,0.1,0.3,0.1c0.3,0,0.6-0.1,0.9-0.2  C69.2,135,69.5,135.4,69.4,135.5L69.4,135.5z M69.4,133.8c-0.2,0.1-0.3,0.2-0.3,0.4c-0.2,0-0.3,0.1-0.5,0.2  c-0.3,0.2-0.4,0.3-0.6,0.1c0-0.1-0.1-0.2-0.1-0.2v-0.5c0.4-0.1,0.8-0.4,1-0.7l0.5,0.2c0.1,0,0.2,0.1,0.2,0.2c0,0,0,0.1,0.1,0.1  C69.8,133.5,69.7,133.6,69.4,133.8L69.4,133.8z M72.1,133.7L72.1,133.7L72.1,133.7c-0.3,0.1-0.4,0.4-0.5,0.8c-0.1,0.4-0.3,1-0.9,0.8  c-0.2-0.1-0.3-0.2-0.5-0.3l-0.4-0.6c0.2-0.2,0.4-0.5,0.5-0.8c0,0,0-0.1,0-0.1c0,0,0-0.1,0-0.1c0-0.1-0.3-0.2-0.3-0.2l-0.9-0.3  c0,0,0-0.1,0-0.1l0.9,0.3c0.1,0,0.3,0,0.4,0c0.1,0,0.1-0.1,0.2-0.2c0.1-0.3,0.1-0.6,0.1-0.9l0.6-0.2c0.2,0,0.4,0,0.6,0  c0.5,0.2,0.4,0.7,0.2,1.2S71.9,133.5,72.1,133.7L72.1,133.7z"/>
<path class="st0" d="M56.3,133.4c3.1,3.8,6.8,7,11.1,9.4l0.3,0.2l0.3-0.2c4.3-2.4,8-5.6,11.1-9.4l0.8-1.1c2.1-3,3.7-6.3,4.7-9.8  v-0.1c0.1-0.3,0.2-0.7,0.3-1l0.1-0.3c0.2-0.9,0.4-1.8,0.5-2.7l0,0c0.3,3,1.3,4.4,3.2,4.4c1.2,0.2,2.2-0.5,2.6-1.7  c0-0.1,0.1-0.2,0.1-0.4c0.4-0.9,0.6-1.8,0.7-2.8v-0.2c0-0.6,0-1.3-0.7-1.6c0,0-0.1-0.1-0.1-0.1c0.2-0.1,0.4-0.2,0.6-0.4  c0.5-0.6,0.8-1.3,1.1-2c0.2-0.5,0.5-1,0.7-1.4l0.1-0.1c1.7-3,2.2-5.6,1.4-7.5l0,0l0,0c-0.5-1.6-1.5-2.9-2.9-3.7  c-0.8-0.6-1.6-1.1-2.3-1.5c-0.5-0.3-1.1-0.6-1.5-1c0.8,0.1,1.5,0.3,2.3,0.5c1,0.3,2.1,0.6,3.2,0.6c1.5,0,3-0.5,4.1-1.4  c0.4-0.4,0.9-0.6,1.5-0.7c0.1,0,0.1,0,0.1-0.1c0-0.1,0-0.1-0.1-0.1c0,0,0,0,0,0c-0.3-0.2-0.6-0.4-0.8-0.6c-0.7-0.7-1.6-1.2-2.5-1.4  c0,0,0,0,0-0.1c-0.2-0.8-0.6-1.6-1.2-2.3c0.6,0.2,1.2,0.2,1.8,0.3c0.8,0,1.5-0.2,2.2-0.6l0.5-0.2c0.1,0,0.2-0.1,0.2-0.3  c0-0.1-0.1-0.2-0.2-0.2c-0.6-0.3-1.2-0.7-1.6-1.2c-0.5-0.5-1.1-1-1.7-1.3c-0.4-0.1-0.8-0.2-1.1-0.2h-0.5h-0.5c-0.2,0-0.3,0-0.5,0  c0,0-0.1,0-0.1,0c0,0,0,0,0-0.1c-0.1-0.3-0.2-0.6-1.1-0.7c3.2-1,5.4-2.2,6.8-3.6c1.2-1.2,1.8-2.8,1.8-4.5v-0.2  c0-0.4-0.1-0.7-0.3-1.1c-0.3-1.5-0.9-2.9-1.6-4.2c-0.2-0.4-0.4-0.7-0.6-1.1c-0.1-0.2-0.1-0.4-0.2-0.7c-0.2-0.8-0.6-1.6-1-2.4  c-0.5-0.5-1-1-1.5-1.4c-0.4-0.3-0.7-0.6-0.9-0.8c0,0-0.1,0-0.2,0c0,0,0,0,0,0c-0.1,0-0.1,0.1-0.1,0.2c0,0.2,0,0.4-0.1,0.6  c-0.1,0.2-0.1,0.4-0.2,0.6c0.1,0.3,0.2,0.6,0.4,0.8c0.1,0.1,0.2,0.3,0.2,0.4c-0.1-0.1-0.3-0.2-0.4-0.3c-0.4-0.3-0.8-0.6-1.3-0.7  h-0.3c0.2-0.4,0.4-0.9,0.4-1.4c0-0.3,0.1-0.7,0.2-1v-0.1c0-0.1,0-0.3-0.2-0.3c-0.1,0-0.2,0-0.3,0.1c0,0,0,0-0.2,0s-0.3,0-0.5,0  c-0.2,0-0.4-0.1-0.6-0.1c-0.7,0.1-1.4,0.4-1.9,0.9l0,0l0,0c-0.3,0.2-0.4,0.6-0.4,0.9c0.1,0.8,0.3,1.7,0.8,2.4  c0.2,0.4,0.5,0.9,0.8,1.6c0.8,1.8,1.7,2,4.7,2.8l0.7,0.2c0.2,0,0.4,0.1,0.5,0.2c0.1,1.5-0.4,3-1.3,4.1c-1.6,2-3.9,3-6.2,4l-0.3,0.1  l1.1-1c0.5-0.5,0.8-1.1,0.8-1.7c0-0.3,0.1-0.6,0.3-0.8c0.7-0.7,1.2-1.5,1.5-2.5c0.1-0.8,0-1.6-0.3-2.3c-0.1-0.3-0.2-0.6-0.2-0.9  c0-0.1-0.1-0.2-0.2-0.2c-0.1-0.1-0.2-0.1-0.3,0c-0.2,0.2-0.4,0.3-0.6,0.4c-0.8,0.3-1.5,0.8-2,1.5c-0.2-0.7-0.6-1.3-1.1-1.8  c-0.7-0.6-1.6-1-2.5-1.3c-0.5-0.1-1-0.4-1.4-0.6c-0.1-0.1-0.2-0.1-0.3,0c-0.1,0-0.2,0.1-0.2,0.2c0,0.4-0.1,0.7-0.2,1.1  c-0.1,0.7-0.2,1.4-0.2,2.1c0.1,0.4,0.2,0.8,0.4,1.1l0,0c0.2,0.2,0.3,0.4,0.5,0.7c0.5,0.7,0.8,1.5,1,2.3c0,2.2-1.8,4-4,4  c-0.2,0-0.4,0-0.6,0c-1.3,0.1-2.5-0.4-3.4-1.3c0.1-0.3,0-0.6-0.2-0.8c-0.1-0.2-0.4-0.4-0.7-0.5l0,0l0.7-3.2l0.5-2c0-0.1,0-0.1,0-0.2  c-0.1,0-0.1-0.1-0.2,0l-1.6-0.3c-0.9-0.2-1.9-0.3-2.9-0.4h-0.1l-1.5,0.3l-0.1,1.8h-1.1l0.1-2.3c0-0.1,0-0.1-0.1-0.2  c0,0-0.1-0.1-0.2-0.1c-0.8,0-1.5,0-2.3,0s-1.5,0-2.3,0c-0.1,0-0.1,0-0.2,0.1c0,0-0.1,0.1-0.1,0.2l0.1,2.3h-1l-0.1-1.8l-1.5-0.3h-0.1  c-1,0.1-1.9,0.2-2.9,0.4L58,77c-0.1,0-0.2,0.2-0.2,0.3l0.5,1.9l0.7,3.2l0,0c-0.3,0.1-0.5,0.2-0.7,0.5c-0.2,0.3-0.2,0.6-0.1,0.9  c0.1,0.5,0.5,0.9,1.1,0.9h0.2h0.2L59.2,85c-0.7,0.2-1.5,0.3-2.2,0.3c-2.6,0-4.5-2.4-4.5-3.5c0-0.5,0.1-0.9,0.2-1.4  c0.1-0.7,0.2-1.4,0.2-2.1c0-0.5-0.1-1.1-0.3-1.6c-0.3-0.6-0.3-1.3-0.1-2c0-0.1,0-0.1-0.1-0.2c0,0-0.1,0-0.2,0c0,0,0,0,0,0  c-0.5,0.6-1.2,0.9-2,1.1c-1.2,0.4-2.1,1.4-2.3,2.7c-0.2-0.3-0.5-0.5-0.8-0.7c-0.5-0.3-1-0.4-1.6-0.4c-0.4,0-0.8-0.1-1.1-0.3  c-0.1,0-0.1,0-0.2,0c-0.1,0-0.1,0.1,0,0.2c0,0,0,0,0,0c0.3,0.3,0.3,1.9,0.3,2.5s0.9,1.5,1.5,2.1l0.2,0.2c0.1,0.1,0.3,0.3,0.4,0.5  c0.6,1,1.5,1.8,2.6,2.3c-3.3-0.3-8.1-2.6-9.4-6.8c-0.1-0.3-0.1-0.6,0.1-0.8c0.4-0.4,1-0.6,1.6-0.6c0.8,0,1.6,0.3,1.6,0.9  c0,0.1,0,0.1,0.1,0.1c0,0,0.1,0,0.1,0c0.5-0.5,0.7-1.2,0.4-1.8c-0.1-0.2-0.2-0.3-0.3-0.4c0.3-0.1,0.6-0.3,0.9-0.4l0.7-0.4  c0.9-0.6,1.6-1.6,1.8-2.7c0.1-0.2,0.1-0.4,0.3-0.6c0.4-0.6,0.7-1.3,0.7-2c0-0.8-0.5-2.2-1.8-2.2c-0.4,0-0.8,0.1-1.1,0.3  c-0.3,0.2-0.6,0.3-1,0.2c-0.1,0-0.2,0.1-0.3,0.2c0,0.1,0,0.2,0.1,0.3c0.6,0.5,1.1,1.1,1.4,1.8c-0.3,0.3-0.7,0.5-1.2,0.6  c-1.3-0.1-2.6,0.3-3.8,0.9c-1.5,0.9-2.3,3.4-2.8,4.8l0,0c-0.2,0.5-0.4,0.9-0.6,1.3c-0.2,0.3-0.4,0.7-0.5,1.1  c-0.5,2.7,0.7,5.3,2.9,6.8c2.1,1.4,4.6,2.1,7.1,2h0.9c-1,0.5-2.1,0.9-3.2,1.3c-0.5,0.2-1.1,0.3-1.7,0.5c-0.9,0.2-1.9,0.6-2.7,1  c-0.7,0.5-1.3,1.1-1.8,1.8c-0.3,0.3-0.5,0.6-0.7,0.8c0,0,0,0.1,0,0.2c0,0.1,0.1,0.1,0.1,0.1c0.7,0,1.3,0,2,0.2  c0.1,0,0.3,0.1,0.4,0.1c0.1,0.1,0.2,0.1,0.3,0.1c0.3,0,0.5-0.1,0.8-0.2c-0.6,0.6-0.9,1.3-1,2.1h-0.9c-0.8,0.1-1.5,0.3-2.1,0.8  c-0.4,0.4-1,0.6-1.5,0.7c-0.1,0-0.3,0.1-0.3,0.3c0,0.1,0.1,0.2,0.2,0.3c0.6,0.2,1.1,0.5,1.7,0.9c1.2,0.8,2.7,1.7,4,1.7  c0.8,0,1.5-0.1,2.2-0.4c0.2-0.1,0.5-0.2,0.7-0.2c0.3,0,0.5,0,0.8,0.1c0.4,0.1,0.8,0.1,1.3,0.1H46c-2.5,1.6-4.8,3.4-5.7,5.5  c-0.9,2.1,0.1,4.4,0.6,5.7c0.1,0.2,0.2,0.4,0.2,0.6c0.2,1,0.3,2,0.3,3c0.2,1.2,0.8,2.3,1.7,3.2c-0.4,0.9-0.6,1.8-0.4,2.8  c0,1,0.5,1.9,1.2,2.6c0.1,0.1,0.2,0.2,0.2,0.2c0.1,0.1,0.2,0.2,0.3,0.3l0,0c0.7,0.4,1.6,0.6,2.5,0.4c0.4-0.1,0.7-0.2,1.1-0.4l0,0  l0,0l0,0c0.2-0.1,0.4-0.3,0.6-0.5c1-1,1.4-2.4,1.4-4.6c0-0.1,0-0.2,0-0.2c0.1,0.8,0.3,1.7,0.5,2.5l0.1,0.3c0.1,0.3,0.2,0.7,0.3,1  v0.1c1,3.5,2.5,6.8,4.7,9.8L56.3,133.4L56.3,133.4z M92.6,68.9c0,0.5-0.2,0.9-0.4,1.3c-0.7,0-1.4-0.3-1.9-0.9  c-0.1-0.2-0.1-0.5-0.1-0.7l0,0c0.4-0.4,0.9-0.6,1.4-0.6c0.2,0,0.4,0,0.6,0.1h0.6C92.6,68.3,92.6,68.6,92.6,68.9L92.6,68.9z   M44.9,68.1c0.2-0.1,0.4-0.1,0.6-0.2c0.3-0.2,0.6-0.2,0.9-0.2c0.9,0,1.2,1.1,1.2,1.6c0,0.6-0.2,1.2-0.6,1.7  c-0.2,0.3-0.3,0.6-0.4,0.9c-0.1,0.6-0.4,1.2-0.9,1.7c0.4-1.1,0.5-2.3,0.2-3.5C45.8,69.3,45.4,68.6,44.9,68.1z M44.8,74.8L44.8,74.8z   M79.2,99.1h-2.9c-0.2-0.6-0.5-1.2-1.1-1.5l0,0c0.1-1.3,0.3-2.6,0.7-3.8c0,0,0.1,0.1,0.1,0.1C77.2,95.4,79.1,98,79.2,99.1z   M71.3,83.7h-0.8c-0.4-0.1-0.6-0.5-0.5-0.9c0.1-0.2,0.3-0.4,0.5-0.5l0,0h0.8h0.1H72h0.3h0.5l0.7,0.1c0.3,0,0.6,0.1,0.8,0.1h0.3  l0.6,0.1l0.9,0.2c0.1,0,0.3,0.1,0.3,0.2c0.1,0.2,0.1,0.4,0.1,0.6c-0.1,0.3-0.3,0.5-0.6,0.6H76l-0.8-0.1l-0.5,0h-0.3l-0.8-0.1  l-0.6-0.1h-0.6H72h-0.5L71.3,83.7z M58.8,79.1l-0.4-1.7l1.3-0.2c0.8-0.2,1.7-0.3,2.6-0.4l0.2,1.9c0,0.1,0.1,0.2,0.3,0.2  c0.9-0.1,1.8-0.1,2.7-0.2c0.1,0,0.1,0,0.2-0.1c0,0,0.1-0.1,0.1-0.2l-0.1-2.3h2h2l-0.1,2.3c0,0.1,0.1,0.2,0.2,0.2  c0.9,0,1.8,0.1,2.7,0.2c0.1,0,0.2-0.1,0.2-0.2l0.2-1.9c0.9,0.1,1.8,0.2,2.6,0.4l1.3,0.2l-0.4,1.7l-0.7,3.2l-0.4-0.1l-0.6-0.1h-0.3  c-0.3,0-0.6-0.1-0.9-0.1L73.2,82l-0.7-0.1h-0.3c-0.2,0-0.4,0-0.6,0h-0.9h-0.3h-0.6c-0.4,0-0.9,0-1.5,0h-1c-0.6,0-1.1,0-1.5,0H65  h-0.3h-0.9h-0.6h-0.3h-0.5L61.7,82c-0.3,0-0.6,0.1-0.8,0.1l-0.3,0.1l-0.6,0.1l-0.4,0.1L58.8,79.1L58.8,79.1z M69.7,83.6L69.7,83.6  c-0.5,0-1,0-1.5,0h-1c-0.5,0-1,0-1.4,0h-0.1h-0.8c-0.3-0.1-0.6-0.3-0.6-0.7c0-0.2,0-0.4,0.2-0.5c0.1-0.1,0.2-0.2,0.3-0.2l0,0  c0.2,0,0.9,0,0.9,0l0,0c0.4,0,0.9,0,1.5,0h0.9c0.5,0,1.1,0,1.5,0h0.1c-0.1,0.2-0.2,0.4-0.2,0.7C69.4,83.2,69.5,83.4,69.7,83.6z   M59.4,84.2c-0.3,0-0.6-0.2-0.7-0.6c-0.1-0.2,0-0.4,0.1-0.6c0.1-0.1,0.2-0.2,0.3-0.2l0.9-0.2l0.5-0.1h0.4l0.8-0.1l0.7-0.1H63h0.4  h0.6H64c-0.1,0.2-0.2,0.5-0.2,0.7c0,0.2,0.1,0.5,0.2,0.7H64h-0.5h-0.3h-0.5l-0.7,0.1L61.1,84h-0.3l-0.5,0.1L59.4,84.2L59.4,84.2z   M60.7,84.7C60.7,84.7,60.7,84.7,60.7,84.7l0.2-0.2h0.3c0.2,0,0.5-0.1,0.8-0.1l0.7-0.1h0.5h0.3H64h0.9h0.3h0.6c0.4,0,0.9,0,1.4,0h1  c0.5,0,1,0,1.4,0h0.6h0.2c0.1,0.1,0.2,0.3,0.4,0.5c0.2,0.6,0.3,1.3,0.3,2c0,2.3-1.2,3.4-2.4,4.6c-1.2,1.2-2.2,2.2-2.2,4.1  c0,1,0.7,1.8,1.7,1.8c0.3,0,0.5-0.1,0.7-0.3c0,0,0-0.1,0-0.1c0,0,0-0.1,0-0.1c-0.3-0.3-0.4-0.6-0.5-1c0.5-0.2,1.1-0.3,1.6-0.3  c0.6,0,1.3-0.2,1.8-0.6c1-0.9,1.7-2.1,1.8-3.5c0-0.4,0.1-0.8,0.3-1.2c0.2,0.3,0.3,0.6,0.4,0.9c0.3,0.8,0.7,1.5,1.1,2.1  c-0.4,1.3-0.7,2.6-0.8,3.9c-0.7-0.3-1.5-0.5-2.3-0.5c-0.7,0-1.3,0.1-2,0.2c-1.7,0.3-3.4,1.8-5,3c-0.5,0.4-1,0.8-1.5,1.2l0,0  c-0.4,0.3-0.8,0.6-1.3,0.8l-0.7,0.2h-0.3l-0.2-0.9l0,0c-0.2-0.5-0.3-1.1-0.5-1.6l0,0c-2.1-6.2-4.7-8.6-5.8-9.3  c4.7-1.3,9.4-2.3,14.3-3h0.1c0.3-0.1,0.5-1.3,0.4-1.8c0-0.5-0.4-0.8-0.9-0.8c-1.3,0-5,2.1-5.5,2.4c-0.5,0.1-4.8,0.7-6.5,1.1v-0.2  C57.9,86.7,59.2,85.5,60.7,84.7L60.7,84.7z M75,99.1h-4.9l-0.2-0.2c0.7-0.5,1.6-0.8,2.5-0.9C73.3,98,74.3,98.4,75,99.1z M60.1,99.1  h-3c0.5-1,1.2-1.9,1.9-2.8C59.4,97.2,59.8,98.1,60.1,99.1L60.1,99.1z M57.4,86.6c-0.4,0.4-0.7,0.8-1,1.3c0,0,0,0.1,0,0.1v0.6  l-0.8,0.2c0-0.1,0.1-0.1,0.1-0.2c0,0,0-0.1,0-0.1c0-0.1,0-0.1-0.1-0.1c-0.2,0-0.3-0.1-0.5-0.2c-0.2-0.1-0.3-0.2-0.5-0.3  C55.6,87.3,56.4,86.9,57.4,86.6L57.4,86.6z M49.6,91c1-0.8,2.1-1.3,3.3-1.6C52.3,90.1,51.9,91,52,92c0,0.4,0.1,0.9,0.3,1.3  c-0.6,0.3-1.2,0.5-1.8,0.6c-0.6-0.1-1.2-0.3-1.6-0.6c-0.3-0.2-0.5-0.3-0.8-0.4l-0.2-0.1C48.3,92.1,48.9,91.5,49.6,91z M43.8,110.1  c0.1-1.1,1.3-3.6,4.8-6.8c-0.1,0.1-0.2,0.2-0.3,0.3c-0.6,1.2-0.9,2.6-0.7,4c0.1,0.9,0.4,1.8,0.9,2.6c0.1,0.2,0.3,0.3,0.4,0.5  c-0.3-0.1-0.6-0.2-0.9-0.3c-0.4-0.2-0.9-0.4-1.4-0.4c-0.4,0-0.7,0-1.1,0.1c-0.4,0.1-0.9,0.1-1.4,0.1L43.8,110.1L43.8,110.1z   M49.5,110.6c-0.8-0.8-1.3-1.9-1.4-3c-0.2-1.2,0-2.5,0.6-3.6c0.2-0.3,0.5-0.6,0.8-0.9V110.6z M46.2,117.9c0.4,0.2,0.7,0.3,1,0.6  c0.1,0.1,0.2,0.1,0.3,0.2c0,0,0,0.1,0,0.1c0.3,0.6,0.2,1.2-0.3,1.7c-0.3,0.2-0.6,0.4-0.9,0.4c-0.2,0-0.4-0.1-0.5-0.2  c0.1-0.1,0.2-0.3,0.3-0.4C46.4,119.5,46.5,118.6,46.2,117.9L46.2,117.9z M47.7,123.3c-0.3,0.2-0.6,0.3-0.9,0.3c-0.2,0-0.4,0-0.5,0  c-0.5,0-1.1-0.1-1.5-0.4c-0.7-0.4-1.1-1.3-0.7-2.1c0.1-0.4,0.5-0.7,0.9-0.8c0,0.2,0.1,0.3,0.2,0.4c0.3,0.3,0.7,0.5,1.1,0.5  c0.5,0,0.9-0.2,1.3-0.5c0.4-0.3,0.6-0.8,0.6-1.3c0.3,0.3,0.5,0.7,0.6,1.2c0,0.1,0,0.1,0,0.2C48.8,121.8,48.5,122.8,47.7,123.3z   M46.7,113.3h-0.1c-0.4-0.1-0.5-0.2-0.6-0.4c0.7,0.1,1.5-0.1,2.1-0.4c0.2-0.2,0.4-0.4,0.6-0.7c0.2-0.3,0.4-0.6,0.6-0.8  c0.1,0.1,0.2,0.1,0.3,0.2c0,2.1,0.1,4.1,0.3,6.2C49.5,115.7,48.3,114.2,46.7,113.3L46.7,113.3z M49.6,99.1v2.6  c-4.2,3.6-6,6.6-6.3,8.2c-1.4-0.5-2.3-2-2.1-3.5c0-1.9,3.5-4.6,6.3-6.9c0.1-0.1,0.1-0.2,0.1-0.4c-0.1-0.1-0.2-0.2-0.4-0.1  c-0.4,0.2-0.8,0.3-1.2,0.3c-0.4,0-0.8-0.1-1.2-0.1c-0.3-0.1-0.6-0.1-0.9-0.1c-0.3,0-0.7,0.1-1,0.2c-0.6,0.3-1.3,0.4-2,0.3  c-1.2,0-2.6-0.9-3.7-1.6c-0.4-0.2-0.7-0.5-1-0.6c0.4-0.2,0.7-0.3,1-0.6c0.5-0.4,1.1-0.7,1.7-0.7h0.7c0,0.7,0.2,1.4,0.7,2  c0.3,0.3,0.4,0.6,0.4,1c0,0.1,0,0.2,0.1,0.2c0.1,0.1,0.1,0.1,0.2,0.1c1.1-0.2,2.1-0.8,2.8-1.6c0.2-0.3,0.6-0.8,1-1.3l0.4-0.5  c0.8,0.2,1.4,0.2,1.6-0.1c0.1-0.1,0.2-0.3,0.2-0.4c0-0.1-0.1-0.2-0.2-0.2c-0.3-0.1-0.6-0.3-0.8-0.5c-0.1-0.1-0.2-0.3-0.3-0.4  c-0.2-0.4-0.3-0.8-0.3-1.2c0.6,0,1.3,0,1.9,0.1c0.1,0,0.3,0.1,0.4,0.1c0.3,0.1,0.5,0.3,0.8,0.4c0.6,0.4,1.2,0.6,1.9,0.7  c0.7-0.1,1.3-0.3,1.9-0.6c0.2,0.2,0.4,0.5,0.6,0.7c0.2,0.2,0.4,0.5,0.5,0.7c0,0.1,0.2,0.2,0.3,0.2c0.1,0,0.2-0.1,0.2-0.2  c0.3-0.3,0.6-0.6,0.9-0.8c0.6-0.4,1.2-1,1.6-1.7c0.7,0.8,1.4,1.7,1.9,2.6c0.1,0.2,0.2,0.3,0.2,0.5c-0.9,1-1.6,2.1-2.2,3.3h-7  L49.6,99.1z M45.6,95.5l0.3-0.4c0.2,0.2,0.4,0.3,0.6,0.4c-0.1,0-0.2,0-0.3,0C46,95.6,45.7,95.6,45.6,95.5L45.6,95.5z M57.1,124.1  c-0.2-0.2-0.3-0.4-0.3-0.7c0-0.3,0-0.7,0.2-1c0,0,0.1,0,0.1,0c0.1,0,0.1,0,0.2,0.1c0.1,0.1,0,0.2,0,0.2v0.1h0.1  c0.1,0,0.3-0.2,0.3-0.4c0-0.2,0-0.5-0.7-0.5l0,0c0-0.3-0.1-0.7-0.3-0.9l0,0l0,0c-0.2,0.2-0.4,0.6-0.3,0.9l0,0  c-0.7,0-0.7,0.4-0.7,0.5s0.1,0.4,0.3,0.4h0.1v-0.1c0-0.1,0-0.1,0-0.2c0,0,0.1-0.1,0.2-0.1c0,0,0.1,0,0.1,0c0.2,0.2,0.2,0.8,0.2,1  c0,0.2-0.1,0.5-0.3,0.7c-0.1,0.1-0.2,0.3-0.2,0.4l0,0h-1.5v-4.7c0-0.3,0.2-0.6,0.4-0.8l0.1-0.1c0.1-0.1,0.3-0.1,0.3,0h6.9  c0.1,0,0.1-0.1,0.2-0.1c0.1,0,0.2,0.1,0.2,0.2v4.7l-0.8,0.8h-1.3l0,0c0-0.1-0.1-0.3-0.2-0.4c-0.2-0.2-0.3-0.4-0.3-0.7  c0-0.3,0-0.7,0.2-1c0,0,0.1,0,0.1,0c0.1,0,0.1,0,0.2,0.1c0.1,0.1,0,0.2,0,0.2v0.1h0.1c0.1,0,0.3-0.2,0.3-0.4c0-0.2,0-0.5-0.7-0.5  l0,0c0-0.3-0.1-0.7-0.3-0.9l0,0l0,0c-0.2,0.2-0.4,0.6-0.3,0.9l0,0c-0.7,0-0.7,0.4-0.7,0.5s0.1,0.4,0.3,0.4h0.1v-0.1  c0-0.1,0-0.1,0-0.2c0,0,0.1-0.1,0.2-0.1c0,0,0.1,0,0.1,0c0.2,0.3,0.2,0.7,0.2,1c0,0.2-0.1,0.5-0.3,0.7c-0.1,0.1-0.2,0.3-0.2,0.4l0,0  h-1.9l0,0C57.2,124.4,57.1,124.2,57.1,124.1L57.1,124.1z M67.8,141.4c-4-2.3-7.6-5.4-10.5-9l10.5-11.5l10.4,11.4  C75.3,136,71.8,139.1,67.8,141.4L67.8,141.4z M69.8,115.3c-0.2-0.2-0.3-0.4-0.3-0.7c0-0.3,0-0.7,0.2-1c0,0,0.1,0,0.1,0  c0.1,0,0.1,0,0.2,0.1c0,0.1,0,0.1,0,0.2v0.1h0.1c0.1,0,0.3-0.2,0.3-0.4c0-0.2,0-0.5-0.7-0.5l0,0c0-0.3-0.1-0.7-0.3-0.9l0,0l0,0  c-0.2,0.2-0.4,0.6-0.3,0.9l0,0c-0.7,0-0.7,0.4-0.7,0.5s0.1,0.4,0.3,0.4h0.1v-0.1c0-0.1,0-0.1,0-0.2c0.1,0,0.1-0.1,0.2-0.1  c0,0,0.1,0,0.1,0c0.2,0.3,0.2,0.7,0.2,1c0,0.2-0.1,0.5-0.3,0.7c-0.1,0.1-0.2,0.3-0.2,0.4l0,0h-2l0,0c0-0.1-0.1-0.3-0.2-0.4  c-0.2-0.2-0.3-0.4-0.3-0.7c0-0.3,0-0.7,0.2-1c0,0,0.1,0,0.1,0c0.1,0,0.1,0,0.2,0.1c0,0.1,0,0.1,0,0.2v0.1h0.1c0.1,0,0.3-0.2,0.3-0.4  c0-0.2,0-0.5-0.7-0.5l0,0c0-0.3-0.1-0.7-0.3-0.9l0,0l0,0c-0.2,0.2-0.4,0.6-0.3,0.9l0,0c-0.7,0-0.7,0.4-0.7,0.5s0.1,0.4,0.3,0.4h0.1  v-0.1c0-0.1,0-0.1,0-0.2c0.1,0,0.1-0.1,0.2-0.1c0,0,0.1,0,0.1,0c0.2,0.3,0.2,0.7,0.2,1c0,0.2-0.1,0.5-0.3,0.7  c-0.1,0.1-0.2,0.3-0.2,0.4l0,0h-1.4V111c0-0.3,0.2-0.6,0.4-0.8l0.1-0.1c0.2-0.1,0.3-0.1,0.3,0h6.9c0.1,0,0.1-0.1,0.2-0.1  c0.1,0,0.2,0.1,0.2,0.2c0,0,0,0,0,0v4.7l-0.8,0.8h-1.3l0,0c0-0.1-0.1-0.3-0.2-0.4L69.8,115.3z M81.5,123.8l-0.8,0.8h-1.4l0,0  c0-0.1-0.1-0.3-0.2-0.4c-0.2-0.2-0.2-0.4-0.3-0.7c0-0.3,0-0.7,0.2-1c0,0,0.1,0,0.1,0c0.1,0,0.1,0,0.2,0.1c0,0.1,0,0.1,0,0.2v0.1h0.1  c0.1,0,0.3-0.2,0.3-0.4c0-0.2,0-0.5-0.7-0.5l0,0c0-0.3-0.1-0.6-0.3-0.9l0,0l0,0c-0.2,0.2-0.4,0.5-0.3,0.9l0,0  c-0.7,0-0.7,0.4-0.7,0.5s0.1,0.4,0.3,0.4h0v-0.1c0-0.1,0-0.1,0-0.2c0.1,0,0.1-0.1,0.2-0.1c0,0,0.1,0,0.1,0c0.2,0.3,0.2,0.7,0.2,1  c0,0.2-0.1,0.5-0.3,0.7c-0.1,0.1-0.2,0.3-0.2,0.4l0,0h-1.8l0,0c0-0.1-0.1-0.3-0.2-0.4c-0.2-0.2-0.2-0.4-0.3-0.7c0-0.3,0-0.7,0.2-1  c0,0,0.1,0,0.1,0c0.1,0,0.1,0,0.2,0.1c0,0.1,0,0.1,0,0.2v0.1h0.1c0.1,0,0.3-0.2,0.3-0.4c0-0.2,0-0.5-0.7-0.5l0,0  c0-0.3-0.1-0.6-0.3-0.9l0,0l0,0c-0.2,0.2-0.4,0.5-0.3,0.9l0,0c-0.7,0-0.7,0.4-0.7,0.5s0.1,0.4,0.3,0.4h0.1v-0.1c0-0.1,0-0.1,0-0.2  c0.1,0,0.1-0.1,0.2-0.1c0,0,0.1,0,0.1,0c0.2,0.3,0.2,0.7,0.2,1c0,0.2-0.1,0.5-0.3,0.7c-0.1,0.1-0.2,0.3-0.2,0.4l0,0h-1.4v-4.7  c0-0.3,0.2-0.6,0.4-0.8l0.2-0.1c0.2-0.1,0.3-0.1,0.3,0h6.9c0.1,0,0.1-0.1,0.2-0.1c0.1,0,0.2,0.1,0.2,0.2L81.5,123.8L81.5,123.8z   M84,119.8l-16.3-17.6l-16.2,17.6c-0.6-3.1-0.8-6.2-0.7-9.3v-10.1h8.6c-0.4,0.5-0.8,1-1.1,1.5l-0.1,0.1l5.3,2.8l0.1-0.1  c0,0,2.2-2.5,4.2-4.4h11.2c-0.1,0.5-0.3,1.1-0.7,1.5c-0.2-0.2-0.4-0.3-0.7-0.4c-0.4-0.2-0.7-0.4-1-0.8c0-0.1-0.1-0.1-0.2-0.1  c-0.1,0-0.1,0-0.2,0c-0.4,0.2-0.7,0.6-0.9,0.9l0,0l0,0c-0.1,0.2-0.2,0.4-0.2,0.6c0,0.2,0,0.3,0,0.5v0.1c0,0,0,0.1,0,0.1  c0.3,0.4,0.6,0.7,1,0.9c0.6,0.4,1.4,0.6,2.1,0.5c1.2,0.1,2.2-0.5,2.8-1.6c0.2,1.9,0.8,7.6,2.9,9c0,0,0.1,0,0.1,0h0.1l0.3-0.2  c0,2.8-0.2,5.6-0.8,8.3L84,119.8z M78,102.2c-0.4,0.4-0.8,0.6-1.3,0.7c-0.3,0-0.6-0.2-0.8-0.4v-0.1c-0.1-0.4,0.1-0.8,0.7-1.3  c0.3,0.3,0.6,0.6,1,0.7C77.8,102,77.9,102.1,78,102.2L78,102.2z M80.8,91.1c0.4,0,0.7,0.1,1.1,0.3c0.6,0.3,1.3,0.4,2,0.4  c0.8-0.1,1.6-0.4,2.2-1c0.8,0.5,1.5,1,2.1,1.5L88,92.4c-0.7,0.5-1.5,0.8-2.3,0.9C83.8,93.3,82,92.5,80.8,91.1L80.8,91.1z   M89.1,119.2c-0.5,0-1-0.3-1.3-0.7c0.2-0.3,0.5-0.5,0.8-0.7c0.2,0.6,0.5,1.1,0.9,1.4H89.1z M91.3,117.5c0,1-0.1,1.3-0.9,1.5  c-0.7,0-1-0.6-1.4-1.5c0-0.1,0-0.1-0.1-0.2c0-0.1-0.1-0.1-0.1-0.2c0.4,0,0.8-0.1,1.1-0.3l0.3-0.1l0.2-0.1c0.1,0,0.3,0,0.4,0l0,0  C91.1,116.5,91.3,117.2,91.3,117.5L91.3,117.5z M92.4,109.5c1-0.4,1.9-1.2,2.5-2.2c-0.2,1.7-0.8,3.3-1.7,4.7c0,0,0,0.1-0.1,0.1  c-0.2,0.4-0.5,1-0.7,1.5c-0.3,0.6-0.6,1.2-1,1.8c-0.4,0.3-0.7,0.5-1.1,0.7l0,0h-0.1h-0.1h-0.1H90h-0.1l0,0l0,0h-0.1  c-0.3,0.2-0.7,0.2-1,0.3c-0.1,0-0.3,0-0.4,0c-0.1,0-0.3,0.1-0.3,0.2c0,0.1,0,0.2,0.1,0.3v0.1l0,0v0.1l0,0c0,0,0,0.1,0,0.1l0,0  c0,0,0,0.1,0,0.1l0,0c-0.3,0.2-0.5,0.4-0.8,0.6c-0.2-0.5-0.4-1-0.4-1.5c0-0.5,0-1.3,2.9-3.5c0.1-0.1,0.1-0.2,0.1-0.3  c0-0.1-0.1-0.2-0.2-0.2h0.1c-0.2,0-0.4,0.1-0.6,0.1c-0.3,0-0.6-0.1-0.9-0.3c-0.1-0.1-0.2-0.2-0.3-0.3c-0.3-0.3-0.5-0.6-0.8-0.9  l0.6-0.3c0.4-0.2,0.8-0.4,1.2-0.6c0.3-0.1,0.6-0.1,0.9-0.2c0.8-0.1,1.6-0.2,2.4-0.4c0,0,0,0,0.1,0L92.4,109.5z M90,105.5  c0.3,0.4,0.6,0.7,0.9,1c1,1,1.5,1.6,1.4,2.4l-0.1,0.1c-0.8,0.2-1.5,0.3-2.3,0.4c-0.3,0-0.7,0.1-1,0.2c-0.5,0.2-0.9,0.4-1.3,0.7  c-0.3,0.2-0.6,0.4-0.9,0.4c-0.1,0-0.3,0.1-0.3,0.2c0,0.1,0.1,0.2,0.2,0.3c0.5,0.3,0.9,0.6,1.2,1.1c0.1,0.1,0.2,0.3,0.3,0.4  c0.3,0.2,0.6,0.4,0.9,0.4c-1.4,0.7-2.5,1.9-3.1,3.4c0.2-2.1,0.2-4.1,0.2-5.8c1-0.8,1.6-2.1,1.6-3.5c-0.1-1.5-0.6-3-1.3-4.3  c-0.1-0.2-0.2-0.3-0.2-0.5v-0.6c0.6,0.7,1.3,1.3,2,1.9C88.7,104.1,89.4,104.8,90,105.5L90,105.5z M89.9,94.9  c0.2-0.1,0.5-0.3,0.6-0.5c0.1,0.2,0.2,0.3,0.3,0.5L89.9,94.9z M98.8,92.2c-0.6,0.3-1.3,0.5-2,0.6c-0.9-0.1-1.8-0.2-2.6-0.5  c-0.1,0-0.3,0-0.3,0.1c-0.1,0.1-0.1,0.2,0,0.3c0.8,0.7,1.4,1.6,1.7,2.5h-0.1c-2.1-0.3-3.5-0.3-4-0.3c-0.1-0.3-0.3-0.6-0.5-0.9  c0.1-0.2,0.2-0.5,0.2-0.7c0-0.4,0.3-0.8,0.7-1c0.1-0.1,0.1-0.2,0.1-0.3c0-0.1,0-0.2-0.1-0.2c-0.1-0.1-0.2-0.2-2-0.2  c-0.4,0-0.8,0.1-1.2,0.3c-0.6-0.4-1.2-0.9-2-1.4c0.3-0.3,0.6-0.5,0.8-0.8c0.3-0.3,0.6-0.5,0.9-0.8c0.1,0,0.2-0.2,0.2-0.3  c0-0.1-0.1-0.2-0.3-0.2c-0.5-0.1-1-0.3-1.4-0.7c-0.8-0.6-1.7-0.9-2.7-1c-0.7,0-1.5,0.1-2.2,0.3c-0.4,0.1-0.9,0.2-1.3,0.2  c-0.6,0-1.2-0.3-1.6-0.8c-0.1-0.1-0.1-0.2-0.2-0.3c0.7,0.2,1.4,0.2,2.1,0.2c2.7,0,4.9-2.2,5.1-4.9c-0.2-1.5-0.8-2.9-1.9-4  c-0.2-0.3-0.3-0.6-0.3-0.9c0-0.7,0.1-1.3,0.2-2c0.1-0.3,0.1-0.5,0.1-0.7c0.4,0.2,0.7,0.3,1.1,0.5c0.8,0.3,1.6,0.6,2.3,1.2  c0.8,0.6,1.1,1.6,0.9,2.6v0.1c0,0.1,0.1,0.3,0.2,0.3c0.1,0,0.2-0.1,0.3-0.2l0,0c0.3-1.1,1.1-2,2.2-2.4l0.4-0.2  c0,0.2,0.1,0.4,0.2,0.6c0.2,0.6,0.3,1.3,0.3,2c-0.3,0.8-0.7,1.6-1.3,2.2c-0.3,0.3-0.5,0.7-0.5,1.1c0,0.5-0.3,1-0.7,1.4l-2.3,2.1  c-0.1,0.1-0.1,0.3,0,0.3c0.1,0.1,0.2,0.2,0.3,0.1c0.6-0.3,1.2-0.6,1.8-0.8c2.4-1,4.8-2.1,6.5-4.1c0.9-1.2,1.4-2.6,1.5-4.1  c1.5,0.6,2.6,1.9,2.9,3.5v0.1c0,3.2-1.7,5.8-9.7,8c-0.1,0-0.2,0.2-0.2,0.3c0,0.1,0.1,0.2,0.3,0.2c2.1,0,2.1,0.2,2.2,0.4  c0.1,0.3,0.3,0.5,0.5,0.5c0.2,0,0.4,0,0.6,0h0.5H95c0.3,0,0.6,0.1,0.9,0.3c0.6,0.3,1.1,0.7,1.5,1.2C97.8,91.5,98.2,91.9,98.8,92.2  L98.8,92.2z"/>
</svg>